<?xml version="1.0" standalone="no"?>
<!DOCTYPE svg PUBLIC "-//W3C//DTD SVG 20010904//EN"
 "http://www.w3.org/TR/2001/REC-SVG-20010904/DTD/svg10.dtd">
<svg version="1.0" xmlns="http://www.w3.org/2000/svg"
 width="310.000000pt" height="163.000000pt" viewBox="0 0 310.000000 163.000000"
 preserveAspectRatio="xMidYMid meet">

<g transform="translate(0.000000,163.000000) scale(0.100000,-0.100000)"
fill="#000000" stroke="none">
<path d="M1423 1410 c-109 -23 -202 -112 -231 -222 l-10 -38 32 0 c29 0 34 4
44 38 6 21 27 56 47 79 120 140 351 98 411 -76 12 -35 13 -36 77 -42 73 -6
143 -41 177 -89 20 -28 26 -30 83 -30 80 -1 131 -24 184 -84 104 -118 71 -294
-69 -372 l-53 -29 -301 -3 -302 -4 -4 -29 -5 -30 316 3 c311 3 317 3 365 27
66 32 122 91 153 158 21 46 25 66 21 131 -2 54 -10 91 -26 123 -47 96 -146
164 -248 171 -41 3 -59 11 -94 40 -55 48 -104 70 -162 76 -45 4 -49 7 -77 57
-61 109 -202 171 -328 145z"/>
<path d="M742 653 l3 -438 334 -3 c198 -1 338 2 345 7 8 7 11 128 10 433 -1
233 -2 426 -3 431 -1 4 -156 7 -346 7 l-345 0 2 -437z m608 328 l0 -60 -270 1
-270 0 0 59 0 59 270 0 270 0 0 -59z m0 -216 l0 -55 -269 0 -269 0 -4 55 -3
55 273 0 272 0 0 -55z m0 -210 c0 -46 -3 -55 -17 -55 -10 -1 -132 -2 -271 -3
l-252 -2 0 58 0 57 270 0 270 0 0 -55z m-2 -227 l3 -58 -271 0 -270 0 0 60 0
60 268 -2 267 -3 3 -57z"/>
<path d="M1267 1004 c-4 -4 -7 -16 -7 -26 0 -14 6 -19 23 -16 14 2 22 10 22
23 0 20 -25 32 -38 19z"/>
<path d="M1264 785 c-8 -20 3 -48 18 -43 6 2 16 12 22 21 8 13 7 20 -4 27 -21
14 -30 12 -36 -5z"/>
<path d="M1267 574 c-4 -4 -7 -16 -7 -26 0 -14 6 -19 23 -16 14 2 22 10 22 23
0 20 -25 32 -38 19z"/>
<path d="M1267 353 c-10 -9 -8 -41 2 -47 16 -10 41 5 41 24 0 10 -7 21 -16 24
-19 7 -19 7 -27 -1z"/>
</g>
</svg>
