<?xml version="1.0" standalone="no"?>
<!DOCTYPE svg PUBLIC "-//W3C//DTD SVG 20010904//EN"
 "http://www.w3.org/TR/2001/REC-SVG-20010904/DTD/svg10.dtd">
<svg version="1.0" xmlns="http://www.w3.org/2000/svg"
 width="900.000000pt" height="900.000000pt" viewBox="0 0 900.000000 900.000000"
 preserveAspectRatio="xMidYMid meet">

<g transform="translate(0.000000,900.000000) scale(0.100000,-0.100000)"
fill="#000000" stroke="none">
<path d="M2160 6565 c0 -4 13 -23 30 -41 104 -118 130 -326 59 -466 -11 -21
-19 -40 -19 -43 0 -3 23 -5 50 -5 76 0 233 -19 338 -40 436 -90 822 -357 1206
-834 164 -204 237 -310 779 -1131 95 -143 211 -313 260 -378 48 -64 87 -123
87 -130 0 -7 -27 -39 -61 -72 -87 -87 -119 -138 -119 -194 0 -51 25 -101 63
-126 20 -13 719 -223 1099 -330 107 -30 148 -29 192 6 31 25 66 89 66 121 0
23 -404 1107 -434 1167 -30 58 -103 88 -170 70 -33 -9 -61 -32 -142 -116
l-100 -106 -81 114 c-44 63 -152 222 -238 354 -495 754 -617 929 -813 1164
-554 665 -1158 992 -1879 1018 -95 3 -173 3 -173 -2z"/>
<path d="M6522 6559 c-283 -33 -586 -147 -842 -317 l-105 -70 -90 83 c-49 45
-104 89 -122 99 -41 21 -89 20 -132 -2 -67 -34 -49 20 -295 -852 -58 -207
-106 -389 -106 -406 0 -41 31 -95 70 -122 49 -33 104 -29 223 17 56 22 302
117 547 211 245 95 457 178 472 186 66 34 96 130 62 197 -11 20 -57 70 -104
113 -47 42 -85 81 -85 87 0 15 185 111 283 146 155 57 266 75 467 75 196 1
267 -9 446 -64 495 -152 884 -569 1004 -1075 92 -387 32 -777 -173 -1120 -139
-233 -362 -439 -612 -565 -107 -54 -297 -116 -415 -136 -120 -21 -358 -23
-464 -6 -40 7 -76 11 -78 9 -2 -3 2 -36 8 -74 24 -144 -30 -294 -143 -398 -37
-34 -54 -57 -46 -60 7 -2 49 -11 93 -19 467 -88 971 -5 1382 228 791 448 1198
1349 1007 2226 -119 544 -452 1015 -929 1315 -247 155 -557 262 -857 294 -112
13 -359 12 -466 0z"/>
<path d="M610 6378 c-49 -25 -90 -88 -90 -139 0 -15 36 -100 80 -188 44 -89
80 -166 80 -172 0 -5 -26 -42 -59 -82 -114 -141 -219 -317 -289 -487 -418
-1006 9 -2146 987 -2635 336 -168 714 -239 1103 -206 605 51 1080 283 1564
766 147 146 349 374 340 382 -3 3 -63 -18 -135 -46 -97 -38 -145 -51 -182 -51
-48 0 -55 3 -95 44 -64 63 -63 78 8 329 27 98 48 180 46 182 -2 3 -28 -27 -56
-65 -236 -316 -526 -594 -775 -744 -369 -222 -850 -299 -1257 -201 -386 94
-712 331 -929 676 -223 357 -277 829 -141 1240 36 108 109 268 143 313 14 19
16 17 41 -32 43 -85 120 -119 201 -88 40 16 68 50 402 493 197 262 366 492
377 511 36 68 8 154 -65 197 -33 19 -55 20 -644 23 l-610 2 -45 -22z"/>
</g>
</svg>
